M48
; DRILL file {KiCad 9.0.2} date 2025-07-27T13:17:17+0200
; FORMAT={-:-/ absolute / metric / decimal}
; #@! TF.CreationDate,2025-07-27T13:17:17+02:00
; #@! TF.GenerationSoftware,Kicad,Pcbnew,9.0.2
; #@! TF.FileFunction,MixedPlating,1,2
FMAT,2
METRIC
; #@! TA.AperFunction,Plated,PTH,ViaDrill
T1C0.300
; #@! TA.AperFunction,Plated,PTH,ComponentDrill
T2C0.600
; #@! TA.AperFunction,Plated,PTH,ViaDrill
T3C0.800
; #@! TA.AperFunction,Plated,PTH,ComponentDrill
T4C0.800
; #@! TA.AperFunction,Plated,PTH,ComponentDrill
T5C0.850
; #@! TA.AperFunction,Plated,PTH,ComponentDrill
T6C1.000
; #@! TA.AperFunction,Plated,PTH,ComponentDrill
T7C1.100
; #@! TA.AperFunction,Plated,PTH,ComponentDrill
T8C1.200
; #@! TA.AperFunction,Plated,PTH,ComponentDrill
T9C1.300
; #@! TA.AperFunction,Plated,PTH,ComponentDrill
T10C1.320
; #@! TA.AperFunction,Plated,PTH,ComponentDrill
T11C1.600
; #@! TA.AperFunction,Plated,PTH,ComponentDrill
T12C4.300
; #@! TA.AperFunction,NonPlated,NPTH,ComponentDrill
T13C0.900
%
G90
G05
T1
X99.75Y-43.75
X100.0Y-37.25
X103.0Y-47.012
X103.25Y-48.412
X104.25Y-97.75
X106.25Y-52.3
X106.25Y-53.7
X107.48Y-53.72
X107.5Y-52.25
X107.89Y-47.5
X108.0Y-59.5
X108.979Y-55.969
X109.0Y-53.25
X109.25Y-44.25
X109.25Y-122.998
X109.25Y-124.5
X109.5Y-62.0
X111.0Y-55.0
X111.75Y-122.998
X111.75Y-125.799
X112.5Y-37.0
X113.575Y-51.0
X113.62Y-57.88
X114.0Y-43.75
X114.25Y-122.998
X114.25Y-127.2
X114.975Y-51.0
X116.042Y-129.256
X116.75Y-122.998
X116.75Y-128.7
X117.13Y-69.37
X117.458Y-129.256
X117.766Y-70.006
X119.9Y-52.9
X121.12Y-65.38
X121.756Y-66.016
X122.3Y-43.5
X123.25Y-119.75
X123.755Y-75.995
X126.0Y-45.9
X126.0Y-47.3
X126.7Y-41.1
X127.0Y-79.75
X127.0Y-119.75
X127.745Y-72.005
X128.5Y-44.4
X128.5Y-47.3
X130.5Y-117.45
X130.5Y-120.45
X131.25Y-75.5
X132.5Y-42.1
X132.5Y-47.3
X133.0Y-120.45
X134.25Y-91.5
X134.25Y-122.998
X134.25Y-124.398
X135.5Y-120.45
X136.75Y-91.5
X136.75Y-122.998
X136.75Y-125.799
X136.85Y-50.912
X137.0Y-65.25
X137.25Y-61.25
X137.975Y-82.725
X138.0Y-120.45
X139.25Y-91.5
X139.25Y-122.998
X139.25Y-127.2
X140.5Y-120.45
X141.15Y-81.3
X141.25Y-129.25
X141.75Y-91.5
X142.0Y-122.998
X142.0Y-128.7
X142.75Y-129.25
X143.0Y-80.7
X144.5Y-91.5
X146.5Y-91.5
X146.75Y-114.3
X147.75Y-75.7
X148.375Y-114.375
X148.75Y-119.75
X149.338Y-111.837
X150.137Y-114.387
X150.25Y-57.5
X150.875Y-111.875
X151.75Y-57.5
X152.387Y-114.387
X152.506Y-111.919
X153.0Y-63.05
X153.02Y-67.22
X153.25Y-56.0
X153.62Y-119.87
X154.963Y-111.962
X157.475Y-55.581
X157.5Y-57.95
X158.25Y-68.199
X158.5Y-52.5
X158.75Y-58.5
X159.5Y-53.75
X159.5Y-122.998
X159.5Y-124.398
X160.055Y-114.455
X160.1Y-112.0
X160.25Y-53.0
X160.5Y-57.2
X161.0Y-112.0
X161.0Y-114.5
X161.25Y-75.75
X161.5Y-57.2
X161.75Y-61.5
X162.0Y-122.998
X162.0Y-125.799
X163.5Y-111.5
X164.0Y-73.95
X164.5Y-122.998
X164.5Y-127.2
X165.0Y-57.75
X165.0Y-80.55
X165.0Y-83.95
X165.282Y-56.782
X165.5Y-74.0
X166.0Y-47.7
X166.0Y-71.95
X166.545Y-129.259
X167.0Y-68.5
X167.25Y-122.998
X167.25Y-128.7
X167.5Y-38.75
X167.5Y-43.0
X167.983Y-59.277
X168.0Y-49.8
X168.0Y-74.0
X168.0Y-129.25
X168.205Y-53.945
X168.25Y-53.0
X168.25Y-56.75
X168.45Y-68.7
X168.5Y-71.95
X169.0Y-43.6
X169.25Y-74.0
X169.496Y-61.764
X169.5Y-57.5
X169.75Y-85.0
X169.88Y-53.88
X170.0Y-59.0
X170.0Y-75.25
X170.37Y-55.37
X170.5Y-61.75
X170.689Y-73.95
X170.75Y-119.75
X171.5Y-115.0
X172.25Y-61.75
X172.75Y-49.75
X172.858Y-64.618
X173.0Y-60.75
X173.681Y-57.579
X173.75Y-51.5
X174.12Y-119.87
X174.25Y-44.5
X174.25Y-60.5
X174.25Y-61.75
X174.25Y-77.0
X174.5Y-87.0
X175.01Y-46.0
X175.5Y-88.0
X175.999Y-61.876
X176.0Y-46.0
X176.12Y-59.62
X176.4Y-44.6
X176.75Y-36.5
X177.0Y-55.5
X177.05Y-56.63
X177.25Y-50.75
X177.4Y-44.6
X177.55Y-60.75
X178.234Y-46.0
X178.245Y-49.245
X178.25Y-59.75
X178.3Y-92.1
X178.45Y-56.5
X178.6Y-70.9
X178.75Y-55.5
X179.0Y-41.7
X179.0Y-49.95
X179.0Y-52.75
X179.2Y-46.0
X179.505Y-44.6
X180.0Y-69.25
X180.1Y-61.6
X180.125Y-56.375
X180.5Y-49.25
X180.5Y-53.75
X180.5Y-68.0
X180.6Y-44.6
X180.75Y-97.55
X181.62Y-92.13
X181.75Y-41.7
X181.75Y-63.0
X182.5Y-40.75
X183.354Y-40.465
X183.75Y-52.75
X184.0Y-56.0
X184.75Y-56.75
X184.75Y-91.25
X185.25Y-48.0
X185.5Y-67.5
X186.0Y-81.4
X187.0Y-78.5
X187.5Y-49.25
X188.25Y-84.5
X189.75Y-86.25
X189.8Y-44.6
X189.8Y-46.0
X190.0Y-128.25
X191.4Y-127.0
X191.5Y-44.6
X193.2Y-75.9
X193.8Y-39.0
X193.8Y-73.6
X194.5Y-52.625
X196.8Y-59.8
X198.22Y-44.5
X199.0Y-33.8
X200.0Y-62.25
X200.0Y-108.3
X200.0Y-110.97
X200.25Y-50.0
X201.4Y-39.2
X201.75Y-57.25
X201.75Y-58.5
X201.75Y-59.75
X202.5Y-70.0
X202.6Y-82.0
X203.0Y-57.25
X203.0Y-114.0
X205.0Y-107.0
X206.0Y-109.25
X206.0Y-111.0
X206.0Y-112.5
X206.5Y-55.0
X210.5Y-105.5
X212.25Y-48.25
T3
X81.5Y-70.25
X88.0Y-122.25
X88.5Y-51.25
X90.75Y-75.5
X90.75Y-88.5
X99.75Y-51.5
X102.75Y-112.5
X104.25Y-85.5
X104.75Y-72.75
X105.0Y-83.25
X105.0Y-95.5
X105.25Y-60.75
X112.41Y-144.0
X119.75Y-80.0
X119.75Y-87.0
X137.21Y-144.5
X154.5Y-103.0
X162.5Y-109.0
X162.63Y-144.5
X170.0Y-105.5
X177.0Y-116.5
X187.0Y-66.0
X187.41Y-144.0
X189.5Y-66.0
X194.4Y-80.69
T4
X82.0Y-62.1
X92.16Y-62.1
X94.25Y-129.21
X94.25Y-131.75
X97.61Y-121.64
X97.61Y-134.34
X100.15Y-121.64
X100.15Y-134.34
X102.69Y-121.64
X102.69Y-134.34
X105.23Y-121.64
X105.23Y-134.34
X107.77Y-121.64
X107.77Y-134.34
X110.31Y-121.64
X110.31Y-134.34
X112.85Y-121.64
X112.85Y-134.34
X115.39Y-121.64
X115.39Y-134.34
X119.75Y-129.21
X119.75Y-131.75
X122.83Y-121.8
X122.83Y-134.5
X125.37Y-121.8
X125.37Y-134.5
X125.9Y-94.0
X125.9Y-96.54
X127.91Y-121.8
X127.91Y-134.5
X129.12Y-86.5
X129.12Y-99.2
X130.45Y-121.8
X130.45Y-134.5
X131.66Y-86.5
X131.66Y-99.2
X132.99Y-121.8
X132.99Y-134.5
X134.2Y-86.5
X134.2Y-99.2
X135.53Y-121.8
X135.53Y-134.5
X136.74Y-86.5
X136.74Y-99.2
X138.07Y-121.8
X138.07Y-134.5
X139.28Y-86.5
X139.28Y-99.2
X140.61Y-121.8
X140.61Y-134.5
X141.82Y-86.5
X141.82Y-99.2
X144.36Y-86.5
X144.36Y-99.2
X145.0Y-129.21
X145.0Y-131.75
X146.9Y-86.5
X146.9Y-99.2
X148.03Y-121.8
X148.03Y-134.5
X150.57Y-121.8
X150.57Y-134.5
X153.11Y-121.8
X153.11Y-134.5
X155.65Y-121.8
X155.65Y-134.5
X158.19Y-121.8
X158.19Y-134.5
X160.73Y-121.8
X160.73Y-134.5
X163.27Y-121.8
X163.27Y-134.5
X165.0Y-98.79
X165.0Y-108.95
X165.81Y-121.8
X165.81Y-134.5
X168.5Y-98.95
X170.0Y-129.21
X170.0Y-131.75
X172.92Y-121.79
X172.92Y-134.49
X175.4Y-92.1
X175.4Y-94.64
X175.46Y-121.79
X175.46Y-134.49
X178.0Y-121.79
X178.0Y-134.49
X178.66Y-98.95
X180.54Y-121.79
X180.54Y-134.49
X183.08Y-121.79
X183.08Y-134.49
X185.62Y-121.79
X185.62Y-134.49
X187.25Y-68.96
X187.25Y-71.5
X188.16Y-121.79
X188.16Y-134.49
X190.7Y-121.79
X190.7Y-134.49
X196.5Y-120.5
X196.5Y-130.66
X197.54Y-53.1
X207.7Y-53.1
T5
X213.8Y-47.25
X213.8Y-52.25
T6
X98.34Y-147.14
X100.88Y-147.14
X103.1Y-35.3
X103.42Y-147.14
X105.96Y-147.14
X111.1Y-35.29
X111.66Y-105.6
X111.66Y-110.6
X123.52Y-147.3
X126.06Y-147.3
X128.6Y-147.3
X131.14Y-147.3
X134.43Y-105.7
X136.97Y-105.7
X139.51Y-105.7
X142.05Y-105.7
X143.01Y-50.75
X145.55Y-50.75
X148.09Y-50.75
X148.91Y-147.3
X150.63Y-50.75
X151.45Y-147.3
X153.17Y-50.75
X153.99Y-147.3
X155.71Y-50.75
X156.53Y-147.3
X158.25Y-50.75
X159.92Y-64.25
X162.46Y-64.25
X165.0Y-64.25
X173.69Y-147.15
X176.23Y-147.15
X178.77Y-147.15
X180.6Y-35.2
X180.6Y-37.74
X181.31Y-147.15
X185.0Y-35.2
X185.0Y-37.74
X185.0Y-40.28
X185.0Y-42.82
X189.4Y-35.17
X189.4Y-37.71
X189.4Y-40.25
T7
X96.16Y-105.1
X96.16Y-115.26
X206.5Y-56.5
X206.5Y-61.0
X213.0Y-56.5
X213.0Y-61.0
T8
X205.0Y-89.0
X205.0Y-92.5
X205.0Y-97.5
X205.0Y-101.0
X205.0Y-118.5
X205.0Y-122.0
X205.0Y-127.0
X205.0Y-130.5
X209.0Y-65.5
X209.0Y-69.0
X209.0Y-72.5
X209.0Y-76.0
X209.0Y-79.5
X212.5Y-89.0
X212.5Y-92.5
X212.5Y-97.5
X212.5Y-101.0
X212.5Y-118.5
X212.5Y-122.0
X212.5Y-127.0
X212.5Y-130.5
T9
X74.16Y-53.68
X74.16Y-58.76
X74.16Y-65.805
X74.16Y-70.885
X74.16Y-77.93
X74.16Y-83.01
X74.16Y-90.055
X74.16Y-95.135
X74.16Y-113.0
X74.16Y-118.08
T10
X97.16Y-57.6
X97.2Y-81.6
X97.2Y-93.6
X97.24Y-69.6
X99.7Y-57.6
X99.74Y-81.6
X99.74Y-93.6
X99.78Y-69.6
X102.24Y-57.6
X102.28Y-81.6
X102.28Y-93.6
X102.32Y-69.6
T11
X141.25Y-55.25
X141.25Y-61.0
X141.25Y-66.75
X141.25Y-72.5
X146.75Y-55.25
X146.75Y-61.0
X146.75Y-66.75
X146.75Y-72.5
T12
X74.0Y-38.5
X74.0Y-146.5
X212.0Y-38.5
X212.0Y-146.5
T13
X170.35Y-34.6
X173.35Y-34.6
T2
G00X216.15Y-46.25
M15
G01X216.85Y-46.25
M16
G05
G00X216.85Y-53.25
M15
G01X216.15Y-53.25
M16
G05
M30
